# xmcd
#
# Track frame offsets:
#	150
#	17212
#	32249
#	48861
#	65998
#	82310
#	98547
#	114484
#	132521
#	149583
#	165145
#	181532
#	201819
#	219706
#	237143
#	251355
#	267667
#	284804
#
# Disc length: 4002 seconds
#
# Revision: 1
# Processed by: cddbd v1.5.2PL0 Copyright (c) Steve Scherf et al.
# Submitted via: audiograbber 1.83.01
#
DISCID=100fa012
DTITLE=Various Artist - Dec 10 Country Radio
DYEAR=2010
DGENRE=Country
TTITLE0=Randy Rogers Band - Steal You Away
TTITLE1=Joey and Rory - That's Important To Me
TTITLE2=Kenny Chesney - Somewhere With You (Single Edit)
TTITLE3=Little Big Town - Kiss Goodbye
TTITLE4=Christian Kane - The House Rules (EP Version)
TTITLE5=Mark Cooke - Can't Cheat In A Small Town
TTITLE6=Josh Turner - I Wouldn't Be A Man
TTITLE7=Uncle Kracker (feat) Kid Rock - Good To Be Me
TTITLE8=Billy Currington - Let Me Down Easy
TTITLE9=Lee Brice - Beautiful Every Time
TTITLE10=Elvis Presley - Suspicious Minds (2010 Viva Elvis Version)
TTITLE11=Jamey Johnson - Playing The Part
TTITLE12=Harters - If I Run
TTITLE13=Gary Allan - Kiss Me When I'm Down
TTITLE14=Loretta Lynn, Sheryl Crow and Miranda Lambert - Coal Miner's Daughter
TTITLE15=Brett Eldredge - Raymond
TTITLE16=Sarah Darling - With Or Without You
TTITLE17=Judds - I Will Stand By You
EXTD=
EXTT0=
EXTT1=
EXTT2=
EXTT3=
EXTT4=
EXTT5=
EXTT6=
EXTT7=
EXTT8=
EXTT9=
EXTT10=
EXTT11=
EXTT12=
EXTT13=
EXTT14=
EXTT15=
EXTT16=
EXTT17=
PLAYORDER=
